HIERARCHY
ROOT Hips
{
	OFFSET	0.000000	0.000000	0.000000
	CHANNELS	6	Xposition	Yposition	Zposition	Zrotation	Xrotation	Yrotation
	JOINT LeftHip
	{
		OFFSET	15.500000	-8.200000	0.000000
		CHANNELS	3	Zrotation	Xrotation	Yrotation
		JOINT LeftKnee
		{
			OFFSET	0.000000	-41.000000	0.000000
			CHANNELS	3	Zrotation	Xrotation	Yrotation
			JOINT LeftAnkle
			{
				OFFSET	0.000000	-41.500000	0.000000
				CHANNELS	3	Zrotation	Xrotation	Yrotation
				End Site
				{
					OFFSET	0.000000	0.000000	22.875000
				}
			}
		}
	}
	JOINT RightHip
	{
		OFFSET	-15.500000	-8.200000	0.000000
		CHANNELS	3	Zrotation	Xrotation	Yrotation
		JOINT RightKnee
		{
			OFFSET	0.000000	-41.000000	0.000000
			CHANNELS	3	Zrotation	Xrotation	Yrotation
			JOINT RightAnkle
			{
				OFFSET	0.000000	-41.500000	0.000000
				CHANNELS	3	Zrotation	Xrotation	Yrotation
				End Site
				{
					OFFSET	0.000000	0.000000	22.875000
				}
			}
		}
	}
	JOINT Chest
	{
		OFFSET	0.000000	16.666667	0.000000
		CHANNELS	3	Zrotation	Xrotation	Yrotation
		JOINT LeftCollar
		{
			OFFSET	4.625000	33.333333	1.541667
			CHANNELS	3	Zrotation	Xrotation	Yrotation
			JOINT LeftShoulder
			{
				OFFSET	13.875000	0.000000	0.000000
				CHANNELS	3	Zrotation	Xrotation	Yrotation
				JOINT LeftElbow
				{
					OFFSET	0.000000	-28.000000	0.000000
					CHANNELS	3	Zrotation	Xrotation	Yrotation
					JOINT LeftWrist
					{
						OFFSET	0.000000	-25.000000	0.000000
						CHANNELS	3	Zrotation	Xrotation	Yrotation
						End Site
						{
							OFFSET	0.000000	-7.500000	0.000000
						}
					}
				}
			}
		}
		JOINT RightCollar
		{
			OFFSET	-4.625000	33.333333	1.541667
			CHANNELS	3	Zrotation	Xrotation	Yrotation
			JOINT RightShoulder
			{
				OFFSET	-13.875000	0.000000	0.000000
				CHANNELS	3	Zrotation	Xrotation	Yrotation
				JOINT RightElbow
				{
					OFFSET	0.000000	-28.000000	0.000000
					CHANNELS	3	Zrotation	Xrotation	Yrotation
					JOINT RightWrist
					{
						OFFSET	0.000000	-25.000000	0.000000
						CHANNELS	3	Zrotation	Xrotation	Yrotation
						End Site
						{
							OFFSET	0.000000	-7.500000	0.000000
						}
					}
				}
			}
		}
		JOINT Neck
		{
			OFFSET	0.000000	33.333333	0.000000
			CHANNELS	3	Zrotation	Xrotation	Yrotation
			JOINT Head
			{
				OFFSET	0.000000	12.000000	0.000000
				CHANNELS	3	Zrotation	Xrotation	Yrotation
				End Site
				{
					OFFSET	0.000000	15.000000	0.000000
				}
			}
		}
	}
}
MOTION
Frames:	20
Frame Time:	0.012000
-15.66	103.90	255.57	-2.41	13.97	29.11	-3.80	-38.21	-1.46	0.00	47.80	0.00	-3.00	30.43	6.98	-3.46	-21.15	0.21	0.00	20.46	0.00	-4.59	21.71	4.11	6.61	7.85	0.51	0.00	0.00	0.00	44.05	3.30	120.10	-140.33	64.19	75.38	1.94	-3.36	0.00	0.00	0.00	0.00	-27.87	-20.27	-129.11	136.27	41.89	-77.62	-4.18	-4.35	0.00	0.00	0.00	0.00	-18.26	7.70	68.22
-15.64	103.85	255.73	-2.36	13.97	29.22	-3.64	-38.87	-1.23	0.00	46.49	0.00	-2.96	30.80	6.94	-3.42	-21.44	-0.10	0.00	21.30	0.00	-4.60	21.12	4.19	6.63	7.84	0.52	0.00	0.00	0.00	44.05	3.30	120.09	-140.36	64.15	75.39	1.95	-3.36	0.00	0.00	0.00	0.00	-27.87	-20.28	-129.11	136.22	41.92	-77.58	-4.18	-4.35	0.00	0.00	0.00	0.00	-18.17	7.76	68.14
-15.76	103.78	255.89	-2.36	13.97	29.22	-3.49	-39.47	-1.11	0.00	45.12	0.00	-2.92	31.08	6.78	-3.37	-21.72	-0.38	0.00	22.17	0.00	-4.64	20.57	4.29	6.69	7.82	0.54	0.00	0.00	0.00	44.09	3.31	120.04	-140.29	64.08	75.29	1.98	-3.37	0.00	0.00	0.00	0.00	-27.84	-20.32	-129.14	136.20	41.98	-77.60	-4.17	-4.35	0.00	0.00	0.00	0.00	-18.23	7.79	68.12
-15.68	103.72	256.09	-2.36	13.97	29.22	-3.36	-40.01	-1.10	0.00	43.68	0.00	-2.93	31.40	6.68	-3.34	-22.01	-0.63	0.00	23.10	0.00	-4.66	19.97	4.37	6.70	7.82	0.55	0.00	0.00	0.00	44.10	3.32	120.04	-140.30	64.06	75.30	1.99	-3.37	0.00	0.00	0.00	0.00	-27.86	-20.35	-129.13	136.18	41.99	-77.59	-4.16	-4.35	0.00	0.00	0.00	0.00	-18.24	7.79	68.11
-15.57	103.64	256.32	-2.26	13.87	29.27	-3.23	-40.50	-1.17	0.00	42.18	0.00	-2.95	31.81	6.63	-3.32	-22.32	-0.84	0.00	24.08	0.00	-4.71	19.25	4.37	6.71	7.81	0.56	0.00	0.00	0.00	44.13	3.34	120.04	-140.28	64.05	75.27	2.03	-3.36	0.00	0.00	0.00	0.00	-27.90	-20.38	-129.13	136.13	42.00	-77.56	-4.16	-4.35	0.00	0.00	0.00	0.00	-18.24	7.98	67.96
-15.67	103.56	256.34	-2.26	13.87	29.27	-3.11	-40.90	-1.31	0.00	40.61	0.00	-2.98	32.35	6.69	-3.32	-22.66	-1.02	0.00	25.09	0.00	-4.74	18.59	4.41	6.73	7.82	0.56	0.00	0.00	0.00	44.17	3.35	120.03	-140.25	64.01	75.23	2.02	-3.35	0.00	0.00	0.00	0.00	-27.92	-20.40	-129.13	136.14	42.01	-77.57	-4.16	-4.36	0.00	0.00	0.00	0.00	-18.27	7.97	67.96
-15.55	103.46	256.53	-2.26	13.87	29.27	-3.00	-41.25	-1.52	0.00	38.97	0.00	-3.02	32.92	6.73	-3.33	-23.02	-1.19	0.00	26.18	0.00	-4.78	17.96	4.45	6.73	7.80	0.57	0.00	0.00	0.00	44.19	3.35	120.04	-140.22	64.02	75.18	2.02	-3.35	0.00	0.00	0.00	0.00	-27.93	-20.44	-129.12	136.08	42.00	-77.50	-4.16	-4.35	0.00	0.00	0.00	0.00	-18.26	7.99	67.95
-15.39	103.36	256.76	-2.15	13.80	29.16	-2.90	-41.53	-1.79	0.00	37.29	0.00	-3.02	33.48	6.69	-3.33	-23.40	-1.26	0.00	27.30	0.00	-4.75	17.37	4.51	6.71	7.78	0.59	0.00	0.00	0.00	44.19	3.35	120.07	-140.12	64.05	75.13	2.00	-3.37	0.00	0.00	0.00	0.00	-27.94	-20.48	-129.10	136.01	41.98	-77.41	-4.16	-4.35	0.00	0.00	0.00	0.00	-18.38	8.13	68.01
-15.39	103.24	256.87	-2.15	13.80	29.16	-2.80	-41.76	-2.12	0.00	35.56	0.00	-3.05	34.00	6.65	-3.34	-23.80	-1.28	0.00	28.42	0.00	-4.70	16.67	4.48	6.72	7.76	0.60	0.00	0.00	0.00	44.20	3.33	120.11	-140.04	64.05	75.08	2.03	-3.39	0.00	0.00	0.00	0.00	-27.95	-20.52	-129.10	135.96	41.98	-77.35	-4.16	-4.35	0.00	0.00	0.00	0.00	-18.38	8.15	68.01
-15.30	103.11	257.07	-2.15	13.80	29.16	-2.70	-41.95	-2.50	0.00	33.80	0.00	-3.06	34.47	6.56	-3.34	-24.21	-1.24	0.00	29.54	0.00	-4.64	15.93	4.39	6.73	7.73	0.61	0.00	0.00	0.00	44.22	3.33	120.12	-139.93	64.07	75.00	2.02	-3.39	0.00	0.00	0.00	0.00	-27.95	-20.56	-129.10	135.91	41.99	-77.30	-4.17	-4.36	0.00	0.00	0.00	0.00	-18.39	8.18	68.00
-15.23	102.95	257.26	-2.11	13.75	28.93	-2.59	-42.08	-2.90	0.00	32.01	0.00	-3.06	34.93	6.49	-3.34	-24.62	-1.20	0.00	30.68	0.00	-4.56	15.22	4.31	6.73	7.71	0.63	0.00	0.00	0.00	44.22	3.33	120.15	-139.84	64.09	74.94	2.03	-3.39	0.00	0.00	0.00	0.00	-27.95	-20.60	-129.09	135.87	42.00	-77.28	-4.16	-4.36	0.00	0.00	0.00	0.00	-18.55	8.20	68.12
-15.06	102.78	257.38	-2.11	13.75	28.93	-2.47	-42.19	-3.29	0.00	30.22	0.00	-3.03	35.34	6.42	-3.33	-25.04	-1.14	0.00	31.82	0.00	-4.45	14.51	4.19	6.73	7.67	0.65	0.00	0.00	0.00	44.23	3.36	120.20	-139.73	64.13	74.85	1.97	-3.40	0.00	0.00	0.00	0.00	-27.98	-20.64	-129.12	135.81	42.01	-77.22	-4.17	-4.36	0.00	0.00	0.00	0.00	-18.54	8.24	68.11
-15.00	102.60	257.59	-2.11	13.75	28.93	-2.33	-42.26	-3.63	0.00	28.41	0.00	-2.94	35.73	6.33	-3.32	-25.42	-1.07	0.00	32.94	0.00	-4.31	13.77	4.08	6.73	7.63	0.67	0.00	0.00	0.00	44.23	3.36	120.24	-139.62	64.15	74.75	1.97	-3.40	0.00	0.00	0.00	0.00	-27.97	-20.68	-129.11	135.75	42.03	-77.17	-4.18	-4.36	0.00	0.00	0.00	0.00	-18.54	8.29	68.10
-14.96	102.40	257.83	-2.06	13.62	28.42	-2.18	-42.29	-3.96	0.00	26.63	0.00	-2.86	36.08	6.25	-3.30	-25.84	-0.98	0.00	34.06	0.00	-4.17	13.03	3.96	6.73	7.59	0.69	0.00	0.00	0.00	44.19	3.38	120.29	-139.57	64.19	74.73	1.96	-3.40	0.00	0.00	0.00	0.00	-27.98	-20.72	-129.10	135.68	42.04	-77.10	-4.19	-4.36	0.00	0.00	0.00	0.00	-18.68	8.32	68.27
-14.68	102.19	257.78	-2.06	13.62	28.42	-2.00	-42.29	-4.26	0.00	24.89	0.00	-2.76	36.39	6.13	-3.28	-26.19	-0.89	0.00	35.11	0.00	-4.00	12.33	3.84	6.71	7.55	0.71	0.00	0.00	0.00	44.14	3.41	120.36	-139.52	64.23	74.74	2.01	-3.39	0.00	0.00	0.00	0.00	-27.98	-20.75	-129.09	135.58	42.05	-77.02	-4.20	-4.36	0.00	0.00	0.00	0.00	-18.67	8.36	68.27
-14.67	101.97	258.03	-2.06	13.62	28.42	-1.80	-42.26	-4.51	0.00	23.16	0.00	-2.69	36.67	6.00	-3.23	-26.55	-0.75	0.00	36.09	0.00	-3.83	11.63	3.72	6.72	7.52	0.73	0.00	0.00	0.00	44.10	3.46	120.38	-139.47	64.22	74.72	2.00	-3.39	0.00	0.00	0.00	0.00	-27.98	-20.79	-129.09	135.56	42.07	-77.06	-4.20	-4.36	0.00	0.00	0.00	0.00	-18.68	8.40	68.26
-14.70	101.74	258.23	-2.01	13.44	27.80	-1.58	-42.20	-4.72	0.00	21.43	0.00	-2.60	36.98	5.87	-3.22	-26.86	-0.68	0.00	37.05	0.00	-3.67	11.00	3.63	6.71	7.45	0.77	0.00	0.00	0.00	43.99	3.50	120.43	-139.38	64.26	74.68	1.99	-3.39	0.00	0.00	0.00	0.00	-27.96	-20.83	-129.07	135.41	42.08	-76.94	-4.22	-4.36	0.00	0.00	0.00	0.00	-18.72	8.55	68.23
-14.33	101.49	258.13	-2.01	13.44	27.80	-1.34	-42.15	-4.87	0.00	19.81	0.00	-2.51	37.32	5.78	-3.19	-27.04	-0.57	0.00	37.70	0.00	-3.55	10.53	3.55	6.68	7.43	0.77	0.00	0.00	0.00	43.93	3.56	120.47	-139.36	64.32	74.70	1.98	-3.39	0.00	0.00	0.00	0.00	-27.98	-20.85	-129.02	135.34	42.08	-76.86	-4.23	-4.36	0.00	0.00	0.00	0.00	-18.69	8.57	68.24
-14.32	101.24	258.34	-2.01	13.44	27.80	-1.09	-42.15	-4.98	0.00	18.32	0.00	-2.46	37.69	5.78	-3.13	-27.09	-0.40	0.00	38.04	0.00	-3.44	10.17	3.46	6.69	7.40	0.78	0.00	0.00	0.00	43.90	3.61	120.51	-139.36	64.32	74.74	1.99	-3.38	0.00	0.00	0.00	0.00	-27.96	-20.88	-129.02	135.29	42.10	-76.83	-4.23	-4.36	0.00	0.00	0.00	0.00	-18.70	8.60	68.24
-14.33	101.00	258.53	-1.97	13.23	27.13	-0.82	-42.10	-5.06	0.00	16.84	0.00	-2.45	38.07	5.81	-3.10	-27.12	-0.26	0.00	38.36	0.00	-3.30	9.83	3.37	6.70	7.38	0.79	0.00	0.00	0.00	43.87	3.67	120.51	-139.33	64.31	74.72	1.99	-3.39	0.00	0.00	0.00	0.00	-27.94	-20.90	-129.03	135.24	42.14	-76.82	-4.22	-4.35	0.00	0.00	0.00	0.00	-18.76	8.76	68.42
